<svg width="52" height="50" viewBox="0 0 52 50" fill="none" xmlns="http://www.w3.org/2000/svg">
<g id="akar-icons:instagram-fill">
<path id="Vector" fill-rule="evenodd" clip-rule="evenodd" d="M16.0731 2.22075C18.5987 2.10825 19.404 2.08325 25.8376 2.08325C32.2711 2.08325 33.0764 2.11034 35.5999 2.22075C38.1234 2.33117 39.8459 2.72075 41.3531 3.28534C42.9313 3.86242 44.3631 4.7645 45.5474 5.93117C46.7531 7.07492 47.6833 8.45825 48.2775 9.98742C48.8632 11.4458 49.2637 13.1124 49.3799 15.5499C49.4962 17.9978 49.522 18.777 49.522 24.9999C49.522 31.2249 49.4941 32.0041 49.3799 34.4478C49.2658 36.8853 48.8632 38.552 48.2775 40.0103C47.6833 41.5397 46.7516 42.9253 45.5474 44.0708C44.3631 45.2374 42.9313 46.1374 41.3531 46.7124C39.8459 47.2791 38.1233 47.6666 35.6042 47.7791C33.0764 47.8916 32.2711 47.9166 25.8376 47.9166C19.404 47.9166 18.5987 47.8895 16.0731 47.7791C13.5539 47.6687 11.8314 47.2791 10.3242 46.7124C8.74365 46.1373 7.3116 45.2359 6.12776 44.0708C4.92283 42.9263 3.99038 41.5413 3.39544 40.0124C2.81194 38.5541 2.41145 36.8874 2.29518 34.4499C2.17891 32.002 2.15308 31.2228 2.15308 24.9999C2.15308 18.7749 2.18107 17.9958 2.29518 15.5541C2.4093 13.1124 2.81194 11.4458 3.39544 9.98742C3.99126 8.45842 4.92442 7.07349 6.12992 5.92909C7.31207 4.76346 8.74269 3.86126 10.3221 3.28534C11.8293 2.72075 13.5518 2.33325 16.0709 2.22075H16.0731ZM35.4082 6.34575C32.9106 6.23534 32.1613 6.21242 25.8376 6.21242C19.5138 6.21242 18.7645 6.23534 16.2669 6.34575C13.9566 6.44784 12.7034 6.82075 11.868 7.13534C10.7635 7.552 9.97326 8.04575 9.14431 8.84784C8.35851 9.58753 7.75377 10.488 7.37443 11.4833C7.04931 12.2916 6.66389 13.5041 6.55839 15.7395C6.44427 18.1562 6.42059 18.8812 6.42059 24.9999C6.42059 31.1187 6.44427 31.8437 6.55839 34.2603C6.66389 36.4958 7.04931 37.7083 7.37443 38.5166C7.75338 39.5103 8.35841 40.4124 9.14431 41.152C9.90867 41.9124 10.841 42.4978 11.868 42.8645C12.7034 43.1791 13.9566 43.552 16.2669 43.6541C18.7645 43.7645 19.5117 43.7874 25.8376 43.7874C32.1635 43.7874 32.9106 43.7645 35.4082 43.6541C37.7186 43.552 38.9717 43.1791 39.8071 42.8645C40.9117 42.4478 41.7019 41.9541 42.5308 41.152C43.3167 40.4124 43.9217 39.5103 44.3007 38.5166C44.6258 37.7083 45.0112 36.4958 45.1167 34.2603C45.2309 31.8437 45.2545 31.1187 45.2545 24.9999C45.2545 18.8812 45.2309 18.1562 45.1167 15.7395C45.0112 13.5041 44.6258 12.2916 44.3007 11.4833C43.8701 10.4145 43.3598 9.64992 42.5308 8.84784C41.7663 8.08757 40.8357 7.50244 39.8071 7.13534C38.9717 6.82075 37.7186 6.44784 35.4082 6.34575V6.34575ZM22.8124 32.0645C24.5019 32.745 26.3831 32.8368 28.1348 32.3243C29.8865 31.8119 31.4 30.7268 32.4167 29.2546C33.4335 27.7824 33.8904 26.0142 33.7095 24.2522C33.5286 22.4902 32.7211 20.8436 31.4249 19.5937C30.5987 18.7947 29.5995 18.1829 28.4996 17.8023C27.3996 17.4218 26.226 17.2819 25.0635 17.3929C23.9009 17.5038 22.7783 17.8628 21.7763 18.4439C20.7744 19.0251 19.918 19.814 19.269 20.7538C18.62 21.6936 18.1943 22.7609 18.0228 23.879C17.8512 24.9971 17.938 26.138 18.2769 27.2197C18.6158 28.3015 19.1983 29.297 19.9826 30.1348C20.7668 30.9725 21.7333 31.6316 22.8124 32.0645ZM17.2293 16.6708C18.3598 15.577 19.7018 14.7093 21.1788 14.1173C22.6558 13.5254 24.2389 13.2207 25.8376 13.2207C27.4363 13.2207 29.0193 13.5254 30.4963 14.1173C31.9733 14.7093 33.3153 15.577 34.4458 16.6708C35.5762 17.7646 36.473 19.0631 37.0848 20.4922C37.6966 21.9213 38.0114 23.4531 38.0114 24.9999C38.0114 26.5468 37.6966 28.0785 37.0848 29.5076C36.473 30.9368 35.5762 32.2353 34.4458 33.3291C32.1628 35.5381 29.0663 36.7791 25.8376 36.7791C22.6088 36.7791 19.5124 35.5381 17.2293 33.3291C14.9463 31.1201 13.6637 28.124 13.6637 24.9999C13.6637 21.8759 14.9463 18.8798 17.2293 16.6708V16.6708ZM40.7114 14.9749C40.9916 14.7192 41.2158 14.4118 41.3709 14.0707C41.526 13.7296 41.6089 13.3619 41.6145 12.9894C41.6201 12.6168 41.5484 12.2469 41.4036 11.9016C41.2588 11.5563 41.0439 11.2426 40.7716 10.9792C40.4993 10.7157 40.1751 10.5077 39.8183 10.3677C39.4614 10.2276 39.0791 10.1582 38.6941 10.1636C38.309 10.1691 37.929 10.2492 37.5765 10.3993C37.224 10.5494 36.9062 10.7664 36.642 11.0374C36.1281 11.5646 35.8467 12.2648 35.8576 12.9894C35.8685 13.714 36.1709 14.4059 36.7005 14.9183C37.2301 15.4308 37.9452 15.7233 38.6941 15.7339C39.443 15.7444 40.1666 15.4722 40.7114 14.9749V14.9749Z" fill="white"/>
</g>
</svg>
